<svg width="64" height="64" viewBox="0 0 64 64" fill="none" xmlns="http://www.w3.org/2000/svg">
<circle cx="32" cy="32" r="32" fill="white"/>
<path fill-rule="evenodd" clip-rule="evenodd" d="M64 32C64 41.1885 60.1273 49.4726 53.925 55.3088C53.9747 54.7125 54 54.1092 54 53.5C54 42.8402 46.2423 33.9923 36.0646 32.2941C40.6916 30.6287 44 26.2007 44 21C44 14.3726 38.6274 9 32 9C25.3726 9 20 14.3726 20 21C20 26.3302 23.4752 30.8486 28.2834 32.4133C18.4282 34.3731 11 43.0691 11 53.5C11 54.4498 11.0616 55.3852 11.181 56.3024C4.33652 50.4335 0 41.7232 0 32C0 14.3269 14.3269 0 32 0C49.6731 0 64 14.3269 64 32Z" fill="#38BDF8"/>
</svg>
