<svg width="32" height="32" viewBox="0 0 32 32" fill="none" xmlns="http://www.w3.org/2000/svg">
<rect y="8" width="32" height="16" rx="3" fill="#D946EF"/>
<path d="M3.28391 21V11.5455H7.18945C7.89731 11.5455 8.50823 11.6732 9.02219 11.9286C9.53924 12.181 9.9378 12.5442 10.2179 13.0181C10.4979 13.489 10.638 14.0476 10.638 14.6939C10.638 15.3494 10.4949 15.9065 10.2086 16.3651C9.92241 16.8205 9.51616 17.1683 8.98988 17.4084C8.4636 17.6454 7.84038 17.7638 7.12021 17.7638H4.65039V15.9634H6.69549C7.04019 15.9634 7.32795 15.9188 7.55877 15.8295C7.79267 15.7372 7.96964 15.5987 8.08967 15.4141C8.20969 15.2263 8.26971 14.9863 8.26971 14.6939C8.26971 14.4015 8.20969 14.1599 8.08967 13.9691C7.96964 13.7752 7.79267 13.6306 7.55877 13.5352C7.32487 13.4367 7.03711 13.3874 6.69549 13.3874H5.56907V21H3.28391ZM8.60671 16.679L10.9611 21H8.46822L6.15998 16.679H8.60671ZM11.582 13.4013V11.5455H19.5732V13.4013H16.7063V21H14.4535V13.4013H11.582ZM28.8396 14.9709H26.5313C26.5006 14.7339 26.4375 14.52 26.3421 14.3292C26.2467 14.1384 26.1205 13.9753 25.9635 13.8398C25.8066 13.7044 25.6204 13.6013 25.4049 13.5305C25.1926 13.4567 24.9571 13.4197 24.6986 13.4197C24.24 13.4197 23.8445 13.5321 23.5122 13.7567C23.1829 13.9814 22.9289 14.3061 22.7504 14.7308C22.575 15.1555 22.4873 15.6695 22.4873 16.2727C22.4873 16.9006 22.5766 17.4268 22.7551 17.8516C22.9366 18.2732 23.1905 18.5917 23.5168 18.8072C23.8461 19.0195 24.2354 19.1257 24.6847 19.1257C24.9371 19.1257 25.1664 19.0934 25.3726 19.0288C25.5819 18.9641 25.765 18.8703 25.922 18.7472C26.082 18.621 26.2128 18.4686 26.3144 18.2901C26.419 18.1085 26.4913 17.9039 26.5313 17.6761L28.8396 17.69C28.7996 18.1085 28.678 18.521 28.4749 18.9272C28.2748 19.3335 27.9994 19.7043 27.6485 20.0398C27.2977 20.3722 26.8699 20.6368 26.3651 20.8338C25.8635 21.0308 25.288 21.1293 24.6386 21.1293C23.783 21.1293 23.0167 20.9415 22.3396 20.5661C21.6656 20.1875 21.1331 19.6366 20.7423 18.9134C20.3514 18.1901 20.156 17.3099 20.156 16.2727C20.156 15.2325 20.3545 14.3507 20.7515 13.6275C21.1485 12.9042 21.6856 12.3549 22.3627 11.9794C23.0397 11.6039 23.7984 11.4162 24.6386 11.4162C25.211 11.4162 25.7404 11.4962 26.2267 11.6562C26.7129 11.8132 27.1407 12.044 27.51 12.3487C27.8794 12.6503 28.1794 13.0212 28.4102 13.4613C28.6411 13.9014 28.7842 14.4046 28.8396 14.9709Z" fill="white"/>
</svg>
