<svg id="visual" viewBox="0 0 900 600" width="900" height="600" xmlns="http://www.w3.org/2000/svg" xmlns:xlink="http://www.w3.org/1999/xlink" version="1.1"><path d="M0 103L13.7 98C27.3 93 54.7 83 82 82C109.3 81 136.7 89 163.8 96C191 103 218 109 245.2 99C272.3 89 299.7 63 327 60C354.3 57 381.7 77 409 88C436.3 99 463.7 101 491 106C518.3 111 545.7 119 573 118C600.3 117 627.7 107 654.8 103C682 99 709 101 736.2 94C763.3 87 790.7 71 818 65C845.3 59 872.7 63 886.3 65L900 67L900 0L886.3 0C872.7 0 845.3 0 818 0C790.7 0 763.3 0 736.2 0C709 0 682 0 654.8 0C627.7 0 600.3 0 573 0C545.7 0 518.3 0 491 0C463.7 0 436.3 0 409 0C381.7 0 354.3 0 327 0C299.7 0 272.3 0 245.2 0C218 0 191 0 163.8 0C136.7 0 109.3 0 82 0C54.7 0 27.3 0 13.7 0L0 0Z" fill="#e0f2fe"></path><path d="M0 193L13.7 209C27.3 225 54.7 257 82 258C109.3 259 136.7 229 163.8 236C191 243 218 287 245.2 304C272.3 321 299.7 311 327 301C354.3 291 381.7 281 409 290C436.3 299 463.7 327 491 341C518.3 355 545.7 355 573 327C600.3 299 627.7 243 654.8 239C682 235 709 283 736.2 299C763.3 315 790.7 299 818 280C845.3 261 872.7 239 886.3 228L900 217L900 65L886.3 63C872.7 61 845.3 57 818 63C790.7 69 763.3 85 736.2 92C709 99 682 97 654.8 101C627.7 105 600.3 115 573 116C545.7 117 518.3 109 491 104C463.7 99 436.3 97 409 86C381.7 75 354.3 55 327 58C299.7 61 272.3 87 245.2 97C218 107 191 101 163.8 94C136.7 87 109.3 79 82 80C54.7 81 27.3 91 13.7 96L0 101Z" fill="#caeafe"></path><path d="M0 259L13.7 277C27.3 295 54.7 331 82 337C109.3 343 136.7 319 163.8 330C191 341 218 387 245.2 405C272.3 423 299.7 413 327 393C354.3 373 381.7 343 409 344C436.3 345 463.7 377 491 395C518.3 413 545.7 417 573 397C600.3 377 627.7 333 654.8 326C682 319 709 349 736.2 359C763.3 369 790.7 359 818 348C845.3 337 872.7 325 886.3 319L900 313L900 215L886.3 226C872.7 237 845.3 259 818 278C790.7 297 763.3 313 736.2 297C709 281 682 233 654.8 237C627.7 241 600.3 297 573 325C545.7 353 518.3 353 491 339C463.7 325 436.3 297 409 288C381.7 279 354.3 289 327 299C299.7 309 272.3 319 245.2 302C218 285 191 241 163.8 234C136.7 227 109.3 257 82 256C54.7 255 27.3 223 13.7 207L0 191Z" fill="#b3e2fd"></path><path d="M0 415L13.7 428C27.3 441 54.7 467 82 459C109.3 451 136.7 409 163.8 413C191 417 218 467 245.2 483C272.3 499 299.7 481 327 474C354.3 467 381.7 471 409 474C436.3 477 463.7 479 491 482C518.3 485 545.7 489 573 469C600.3 449 627.7 405 654.8 401C682 397 709 433 736.2 449C763.3 465 790.7 461 818 451C845.3 441 872.7 425 886.3 417L900 409L900 311L886.3 317C872.7 323 845.3 335 818 346C790.7 357 763.3 367 736.2 357C709 347 682 317 654.8 324C627.7 331 600.3 375 573 395C545.7 415 518.3 411 491 393C463.7 375 436.3 343 409 342C381.7 341 354.3 371 327 391C299.7 411 272.3 421 245.2 403C218 385 191 339 163.8 328C136.7 317 109.3 341 82 335C54.7 329 27.3 293 13.7 275L0 257Z" fill="#9adafd"></path><path d="M0 601L13.7 601C27.3 601 54.7 601 82 601C109.3 601 136.7 601 163.8 601C191 601 218 601 245.2 601C272.3 601 299.7 601 327 601C354.3 601 381.7 601 409 601C436.3 601 463.7 601 491 601C518.3 601 545.7 601 573 601C600.3 601 627.7 601 654.8 601C682 601 709 601 736.2 601C763.3 601 790.7 601 818 601C845.3 601 872.7 601 886.3 601L900 601L900 407L886.3 415C872.7 423 845.3 439 818 449C790.7 459 763.3 463 736.2 447C709 431 682 395 654.8 399C627.7 403 600.3 447 573 467C545.7 487 518.3 483 491 480C463.7 477 436.3 475 409 472C381.7 469 354.3 465 327 472C299.7 479 272.3 497 245.2 481C218 465 191 415 163.8 411C136.7 407 109.3 449 82 457C54.7 465 27.3 439 13.7 426L0 413Z" fill="#7dd3fc"></path></svg>